<svg width="22" height="22" viewBox="0 0 22 22" fill="none" xmlns="http://www.w3.org/2000/svg">
<path opacity="0.4" d="M17.2414 8.26923C16.8276 8.26923 16.2793 8.26006 15.5968 8.26006C13.9322 8.26006 12.5635 6.88231 12.5635 5.20206V2.25406C12.5635 2.02215 12.3783 1.83331 12.1487 1.83331H7.30003C5.03728 1.83331 3.20837 3.69048 3.20837 5.96656V15.8436C3.20837 18.2316 5.12441 20.1666 7.48882 20.1666H14.7091C16.9637 20.1666 18.7917 18.3214 18.7917 16.0435V8.68173C18.7917 8.44889 18.6075 8.26098 18.3769 8.26189C17.9893 8.26464 17.5246 8.26923 17.2414 8.26923Z" fill="#56555C"/>
<path opacity="0.4" d="M14.7437 2.35336C14.4696 2.06828 13.9911 2.26444 13.9911 2.65953V5.07678C13.9911 6.09061 14.8262 6.92478 15.84 6.92478C16.4789 6.93211 17.3663 6.93394 18.1198 6.93211C18.5057 6.93119 18.7018 6.47011 18.4342 6.19144C17.4671 5.18586 15.7355 3.38369 14.7437 2.35336Z" fill="#56555C"/>
<path d="M13.2165 13.6517C13.5932 13.6517 13.8994 13.9579 13.8994 14.3346C13.8994 14.7114 13.5932 15.0166 13.2165 15.0166H8.22616C7.84941 15.0166 7.54416 14.7114 7.54416 14.3346C7.54416 13.9579 7.84941 13.6517 8.22616 13.6517H13.2165ZM11.329 9.07367C11.7057 9.07367 12.0119 9.37984 12.0119 9.75659C12.0119 10.1333 11.7057 10.4386 11.329 10.4386H8.22607C7.84932 10.4386 7.54407 10.1333 7.54407 9.75659C7.54407 9.37984 7.84932 9.07367 8.22607 9.07367H11.329Z" fill="#56555C"/>
</svg>
