<svg width="18" height="20" viewBox="0 0 18 20" fill="none" xmlns="http://www.w3.org/2000/svg">
<path d="M9.01096 12.5942C7.54019 12.5942 6.35046 11.4484 6.35046 10.0092C6.35046 8.57004 7.54019 7.41504 9.01096 7.41504C10.4817 7.41504 11.6434 8.57004 11.6434 10.0092C11.6434 11.4484 10.4817 12.5942 9.01096 12.5942Z" fill="black"/>
<path opacity="0.4" d="M17.4609 12.1725C17.2829 11.8975 17.0299 11.6225 16.702 11.4484C16.4397 11.32 16.2711 11.1092 16.1212 10.8617C15.6435 10.0734 15.9245 9.03754 16.7208 8.57004C17.6576 8.04754 17.9574 6.88337 17.414 5.97587L16.7864 4.89421C16.2524 3.98671 15.0814 3.66587 14.154 4.19754C13.3296 4.63754 12.271 4.34421 11.7932 3.56504C11.6434 3.30837 11.559 3.03337 11.5778 2.75837C11.6059 2.40087 11.4935 2.06171 11.3248 1.78671C10.9782 1.21837 10.3506 0.833374 9.65736 0.833374H8.33648C7.65262 0.851707 7.02496 1.21837 6.67835 1.78671C6.50036 2.06171 6.39731 2.40087 6.41605 2.75837C6.43478 3.03337 6.35047 3.30837 6.20058 3.56504C5.72282 4.34421 4.66424 4.63754 3.84923 4.19754C2.91244 3.66587 1.75081 3.98671 1.20747 4.89421L0.579819 5.97587C0.0458463 6.88337 0.34562 8.04754 1.27305 8.57004C2.06932 9.03754 2.35036 10.0734 1.88196 10.8617C1.72271 11.1092 1.55409 11.32 1.29178 11.4484C0.973273 11.6225 0.692234 11.8975 0.542347 12.1725C0.195733 12.7409 0.214469 13.4559 0.561083 14.0517L1.20747 15.1517C1.55409 15.7384 2.20047 16.105 2.87496 16.105C3.19347 16.105 3.56819 16.0134 3.86797 15.83C4.10217 15.6742 4.3832 15.6192 4.69235 15.6192C5.61977 15.6192 6.39731 16.38 6.41605 17.2875C6.41605 18.3417 7.2779 19.1667 8.36458 19.1667H9.63862C10.7159 19.1667 11.5778 18.3417 11.5778 17.2875C11.6059 16.38 12.3834 15.6192 13.3109 15.6192C13.6106 15.6192 13.8917 15.6742 14.1352 15.83C14.435 16.0134 14.8004 16.105 15.1282 16.105C15.7934 16.105 16.4397 15.7384 16.7864 15.1517L17.4421 14.0517C17.7794 13.4375 17.8075 12.7409 17.4609 12.1725Z" fill="black"/>
</svg>
