<svg width="20" height="5" viewBox="0 0 20 5" fill="none" xmlns="http://www.w3.org/2000/svg">
<path d="M4 2.5C4 3.60457 3.10457 4.5 2 4.5C0.895431 4.5 0 3.60457 0 2.5C0 1.39543 0.895431 0.5 2 0.5C3.10457 0.5 4 1.39543 4 2.5Z" fill="white"/>
<path d="M12 2.5C12 3.60457 11.1046 4.5 10 4.5C8.89543 4.5 8 3.60457 8 2.5C8 1.39543 8.89543 0.5 10 0.5C11.1046 0.5 12 1.39543 12 2.5Z" fill="white"/>
<path d="M20 2.5C20 3.60457 19.1046 4.5 18 4.5C16.8954 4.5 16 3.60457 16 2.5C16 1.39543 16.8954 0.5 18 0.5C19.1046 0.5 20 1.39543 20 2.5Z" fill="white"/>
</svg>
