<svg width="22" height="22" viewBox="0 0 22 22" fill="none" xmlns="http://www.w3.org/2000/svg">
<path fill-rule="evenodd" clip-rule="evenodd" d="M8.8394 1.83333C9.71115 1.83424 10.5416 2.25041 11.0623 2.94616L11.8974 4.05716C12.1623 4.40916 12.5831 4.61908 13.0231 4.61999H15.6163C19.1565 4.61999 20.8056 6.43408 20.8056 10.329L20.7799 14.8821C20.779 18.5194 18.5185 20.7799 14.8793 20.7799H7.74581C4.09931 20.7799 1.83331 18.5185 1.83331 14.8793V7.73025C1.83331 3.817 3.57406 1.83333 7.00606 1.83333H8.8394ZM8.83848 3.20833H7.00606C4.34406 3.20833 3.20831 4.56133 3.20831 7.73025V14.8793C3.20831 17.798 4.81981 19.4049 7.74581 19.4049H14.8793C17.798 19.4049 19.4049 17.798 19.4049 14.8793V14.8766L19.4306 10.3253C19.4306 7.20958 18.3617 5.995 15.6163 5.995H13.0221C12.1522 5.99408 11.3217 5.57883 10.7992 4.884L9.96231 3.77116C9.69923 3.41825 9.27848 3.20924 8.83848 3.20833ZM15.3232 13.0284C15.7027 13.0284 16.0107 13.3364 16.0107 13.7159C16.0107 14.0954 15.7027 14.4034 15.3232 14.4034H7.31608C6.93658 14.4034 6.62858 14.0954 6.62858 13.7159C6.62858 13.3364 6.93658 13.0284 7.31608 13.0284H15.3232Z" fill="#56555C"/>
</svg>
